<?xml version="1.0" standalone="no"?>
<!DOCTYPE svg PUBLIC "-//W3C//DTD SVG 20010904//EN"
 "http://www.w3.org/TR/2001/REC-SVG-20010904/DTD/svg10.dtd">
<svg version="1.0" xmlns="http://www.w3.org/2000/svg"
 width="225.000000pt" height="225.000000pt" viewBox="0 0 225.000000 225.000000"
 preserveAspectRatio="xMidYMid meet">

<g transform="translate(0.000000,225.000000) scale(0.100000,-0.100000)"
fill="#000000" stroke="none">
<path d="M1842 373 l-2 -123 -166 0 c-129 0 -164 -3 -158 -12 6 -10 5 -10 -7
-1 -19 15 -68 12 -62 -5 3 -7 13 -10 23 -7 21 7 50 -3 50 -17 0 -6 -6 -5 -15
2 -8 6 -20 10 -27 8 -8 -3 -1 -11 17 -21 17 -9 26 -16 21 -17 -18 0 -86 44
-86 57 0 14 -6 15 -33 4 -15 -6 -11 -11 25 -29 24 -13 58 -32 76 -43 18 -11
31 -16 28 -11 -6 10 40 10 50 -1 5 -4 0 -5 -10 -1 -15 6 -17 4 -11 -6 5 -9 4
-11 -3 -6 -23 14 -11 -2 12 -18 18 -11 27 -13 32 -4 5 7 3 8 -6 3 -8 -5 -11
-4 -6 3 4 6 14 8 22 5 12 -5 13 -7 3 -14 -8 -4 -11 -10 -9 -12 3 -2 29 -18 58
-36 43 -28 55 -31 68 -21 10 9 18 10 25 3 8 -8 7 -13 -2 -18 -8 -5 -10 -4 -5
3 4 7 3 12 -3 12 -5 0 -13 -5 -16 -10 -8 -13 54 -40 74 -32 42 16 46 30 49
201 2 91 2 193 -1 226 -2 33 -4 5 -5 -62z m-105 -299 c-3 -3 -12 -4 -19 -1 -8
3 -5 6 6 6 11 1 17 -2 13 -5z"/>
<path d="M402 250 c-1 -171 1 -198 16 -216 32 -39 49 -37 143 17 50 29 86 56
82 62 -3 6 -1 7 5 3 14 -8 55 17 45 27 -10 11 -25 8 -18 -3 4 -6 -1 -7 -11 -3
-15 5 -15 7 0 15 10 5 23 5 33 0 20 -12 114 45 110 67 -1 8 5 16 13 18 12 4
12 3 1 -5 -7 -5 -9 -12 -4 -15 5 -3 31 8 58 25 59 36 79 52 50 42 -18 -7 -19
-6 -5 11 14 17 14 18 -7 7 -26 -14 -41 -34 -19 -26 9 3 16 3 16 0 0 -11 -70
-37 -81 -30 -5 3 -16 1 -24 -6 -9 -7 -15 -8 -20 0 -3 5 -12 10 -18 10 -8 0 -9
-2 -1 -8 7 -4 1 -15 -18 -30 -15 -13 -28 -19 -28 -14 0 5 7 15 15 22 28 23 -3
30 -137 30 -109 0 -128 -2 -128 -16 0 -8 -5 -12 -10 -9 -6 3 -7 18 -4 33 l6
27 -15 -27 c-9 -15 -18 -38 -20 -50 -2 -13 -5 6 -7 42 -7 186 -17 186 -18 0z
m388 -39 c0 -5 -9 -11 -21 -14 -16 -4 -18 -3 -8 9 13 16 29 19 29 5z m-50 -35
c0 -2 -8 -10 -17 -17 -16 -13 -17 -12 -4 4 13 16 21 21 21 13z m-245 -96 c-3
-5 -11 -10 -16 -10 -6 0 -7 5 -4 10 3 6 11 10 16 10 6 0 7 -4 4 -10z"/>
<path d="M1125 400 c-4 -6 -11 -8 -16 -5 -5 4 -17 1 -26 -4 -10 -6 -13 -11 -8
-11 6 0 -1 -10 -15 -21 l-25 -21 32 18 c18 10 29 22 26 28 -4 5 0 7 10 3 8 -3
21 1 27 9 7 8 10 14 7 14 -3 0 -9 -5 -12 -10z"/>
<path d="M1183 393 c4 -3 1 -13 -6 -22 -11 -14 -10 -14 5 -2 16 12 16 31 1 31
-4 0 -3 -3 0 -7z"/>
<path d="M1200 356 c0 -2 7 -9 15 -16 9 -7 15 -8 15 -2 0 5 -7 12 -15 16 -8 3
-15 4 -15 2z"/>
<path d="M975 310 c-39 -26 -25 -26 17 0 18 11 29 20 23 20 -5 0 -23 -9 -40
-20z"/>
<path d="M885 310 c-3 -6 1 -7 9 -4 18 7 21 14 7 14 -6 0 -13 -4 -16 -10z"/>
<path d="M1272 303 c5 -6 17 -9 25 -6 9 4 14 2 10 -3 -3 -5 7 -17 22 -25 22
-13 28 -13 28 -3 0 8 -9 14 -19 14 -11 0 -16 5 -13 11 4 6 13 8 19 6 7 -3 13
1 13 8 0 10 -5 11 -18 4 -21 -11 -32 -12 -26 -1 3 4 -8 7 -23 7 -21 0 -26 -3
-18 -12z"/>
</g>
</svg>
